<mxfile host="app.diagrams.net" modified="2023-10-05T18:46:12.523Z" agent="Mozilla/5.0 (Windows NT 10.0; Win64; x64; rv:109.0) Gecko/20100101 Firefox/118.0" version="22.0.2" etag="DUCi3ol0R46EoOsMY9Ua" type="github">
  <diagram name="Page-1" id="w1LxiJ7KrOORrqjJ36fA">
    <mxGraphModel>
      <root>
        <mxCell id="0" />
        <mxCell id="1" parent="0" />
        <mxCell id="2" value="Start" style="whiteSpace=wrap;strokeWidth=2;" vertex="1" parent="1">
          <mxGeometry x="245" width="50" height="34" as="geometry" />
        </mxCell>
        <mxCell id="3" value="GetWord" style="whiteSpace=wrap;strokeWidth=2;" vertex="1" parent="1">
          <mxGeometry x="231" y="103" width="78" height="34" as="geometry" />
        </mxCell>
        <mxCell id="4" value="GenerateBlank" style="whiteSpace=wrap;strokeWidth=2;" vertex="1" parent="1">
          <mxGeometry x="210" y="206" width="121" height="34" as="geometry" />
        </mxCell>
        <mxCell id="5" value="DisplayBlank" style="whiteSpace=wrap;strokeWidth=2;" vertex="1" parent="1">
          <mxGeometry x="218" y="309" width="105" height="34" as="geometry" />
        </mxCell>
        <mxCell id="6" value="CheckLetter" style="whiteSpace=wrap;strokeWidth=2;" vertex="1" parent="1">
          <mxGeometry x="178" y="412" width="103" height="34" as="geometry" />
        </mxCell>
        <mxCell id="7" value="End" style="whiteSpace=wrap;strokeWidth=2;" vertex="1" parent="1">
          <mxGeometry x="461" y="618" width="41" height="34" as="geometry" />
        </mxCell>
        <mxCell id="8" value="UpdateBlank" style="whiteSpace=wrap;strokeWidth=2;" vertex="1" parent="1">
          <mxGeometry x="19" y="515" width="106" height="34" as="geometry" />
        </mxCell>
        <mxCell id="9" value="ReduceAttempts" style="whiteSpace=wrap;strokeWidth=2;" vertex="1" parent="1">
          <mxGeometry x="266" y="515" width="133" height="34" as="geometry" />
        </mxCell>
        <mxCell id="10" value="DisplayAttempts" style="whiteSpace=wrap;strokeWidth=2;" vertex="1" parent="1">
          <mxGeometry x="180" y="618" width="132" height="34" as="geometry" />
        </mxCell>
        <mxCell id="11" value="\" style="whiteSpace=wrap;strokeWidth=2;" vertex="1" parent="1">
          <mxGeometry x="345" width="21" height="34" as="geometry" />
        </mxCell>
        <mxCell id="12" value="Start new game" style="curved=1;startArrow=none;endArrow=block;exitX=0.4998332595825195;exitY=1;entryX=0.4998931151169997;entryY=0;" edge="1" parent="1" source="2" target="3">
          <mxGeometry relative="1" as="geometry">
            <Array as="points" />
          </mxGeometry>
        </mxCell>
        <mxCell id="13" value="Word received" style="curved=1;startArrow=none;endArrow=block;exitX=0.4998931151169997;exitY=1;entryX=0.49579886759608244;entryY=0;" edge="1" parent="1" source="3" target="4">
          <mxGeometry relative="1" as="geometry">
            <Array as="points" />
          </mxGeometry>
        </mxCell>
        <mxCell id="14" value="Blank word generated" style="curved=1;startArrow=none;endArrow=block;exitX=0.49579886759608244;exitY=1;entryX=0.495158695039295;entryY=0;" edge="1" parent="1" source="4" target="5">
          <mxGeometry relative="1" as="geometry">
            <Array as="points" />
          </mxGeometry>
        </mxCell>
        <mxCell id="15" value="Letter guessed" style="curved=1;startArrow=none;endArrow=block;exitX=0.36778313120481754;exitY=1;entryX=0.49975722970314396;entryY=0;" edge="1" parent="1" source="5" target="6">
          <mxGeometry relative="1" as="geometry">
            <Array as="points">
              <mxPoint x="229" y="378" />
            </Array>
          </mxGeometry>
        </mxCell>
        <mxCell id="16" value="Word guessed" style="curved=1;startArrow=none;endArrow=block;exitX=0.994047600882394;exitY=0.8021576687930476;entryX=0.9102918198965121;entryY=0;" edge="1" parent="1" source="5" target="7">
          <mxGeometry relative="1" as="geometry">
            <Array as="points">
              <mxPoint x="533" y="378" />
              <mxPoint x="533" y="584" />
            </Array>
          </mxGeometry>
        </mxCell>
        <mxCell id="17" value="Correct letter" style="curved=1;startArrow=none;endArrow=block;exitX=0.3585579363606925;exitY=1;entryX=0.8507181965271879;entryY=0;" edge="1" parent="1" source="6" target="8">
          <mxGeometry relative="1" as="geometry">
            <Array as="points">
              <mxPoint x="185" y="481" />
            </Array>
          </mxGeometry>
        </mxCell>
        <mxCell id="18" value="Blank word updated" style="curved=1;startArrow=none;endArrow=block;exitX=0.4963049978580115;exitY=0;entryX=-0.0037302108038039434;entryY=0.8999597372994017;" edge="1" parent="1" source="8" target="5">
          <mxGeometry relative="1" as="geometry">
            <Array as="points">
              <mxPoint x="72" y="378" />
            </Array>
          </mxGeometry>
        </mxCell>
        <mxCell id="19" value="Incorrect letter" style="curved=1;startArrow=none;endArrow=block;exitX=0.8303484021802685;exitY=1;entryX=0.5009711559553792;entryY=0;" edge="1" parent="1" source="6" target="9">
          <mxGeometry relative="1" as="geometry">
            <Array as="points">
              <mxPoint x="333" y="481" />
            </Array>
          </mxGeometry>
        </mxCell>
        <mxCell id="20" value="Attempts remaining" style="curved=1;startArrow=none;endArrow=block;exitX=0.2859013199118752;exitY=1;entryX=0.4998105800513065;entryY=0;" edge="1" parent="1" source="9" target="10">
          <mxGeometry relative="1" as="geometry">
            <Array as="points">
              <mxPoint x="246" y="584" />
            </Array>
          </mxGeometry>
        </mxCell>
        <mxCell id="21" value="No attempts remaining" style="curved=1;startArrow=none;endArrow=block;exitX=0.7160409919988832;exitY=1;entryX=-0.0019368648867795146;entryY=0;" edge="1" parent="1" source="9" target="7">
          <mxGeometry relative="1" as="geometry">
            <Array as="points">
              <mxPoint x="419" y="584" />
            </Array>
          </mxGeometry>
        </mxCell>
      </root>
    </mxGraphModel>
  </diagram>
</mxfile>
